<svg xmlns="http://www.w3.org/2000/svg" viewBox="0 0 960 960"><path fill="#3eb8aa" d="M960 480C960 215 745 0 480 0S0 215 0 480s215 480 480 480 480-215 480-480z"/><path fill="#36ad9c" d="M933.7 367.3H880v-53.5h50.4l-1.4-3.6h-49v-53.6h25l-2-3.6h-23v-38.2l-3.5-5.4V253H823v-53.6h46.3l-2.6-3.6H823v-51.6l-5.7-5.7h-51.6V94.3l-3.6-2.6v47h-53.5V85h44l-5-3.6h-39V57.8l-3.6-2v25.6h-53.7V31.6l-3.6-1.4v51.2H594V27.8h47l-10.6-3.6H594V13.8l-3.5-.8v11.2H537V3.5l-3.7-.5v21.2h-53.6V0H476v24.2h-53.5V3.5L419 4v20.2h-53.7V14l-3.6.7V24h-32l-10.8 3.7h42.7v53.7H308V31.8l-3.5 1.4v48.2H251V58l-3.7 2.2v21.2h-34.7l-5.2 3.6h40v53.6h-53.7v-44l-3.6 3v41h-47.3l-3.7 3.6h51v53.6h-53.5v-51l-3.6 3.8v47H93.2l-2.6 3.7H133V253H79.3v-37.3l-3.6 5.7V253H57l-2 3.6h20.7v53.6H31l-1.4 3.6h46v53.6H22.3v-32L18.6 348v19.3h-5.2l-.8 3.6h6v53.5H3.2c0 1.2-.3 2.4-.5 3.6h15.7v53.7H0v3.6h18.5V539H3.7l.5 3.5h14.3V596h-4.3l.8 3.7h3.5V612c1.2 4.2 2.3 8.3 3.6 12.4v-24.6h53.7v53.6H32.4l1.4 3.6h42v53.6h-17l2.2 3.6h14.7v24.5l3.6 5.7V714H133v53.7H95.7l3 3.6H133v40l3.6 3.8v-43.7h53.6V825h-43.8l3.8 3.5h40v34l3.6 2.8v-36.8h53.6V882H218l5.7 3.7h23.7v14l3.6 2.2v-16.3h53.6v41l3.6 1.4v-42.3h53.6v53.6h-21.5L353 943h8.7v2.2l3.6.8v-3.2H419V956l3.5.5V943H476v17h3.7v-17h53.6v14l3.6-.5V943h53.5v4l3.6-.7V943h13l12.7-3.6H594v-53.7h53.7v44l3.6-1.3v-42.7H705V904l3.5-2v-16.3h28l5.6-3.6h-33.5v-53.5H762v39.8l3.7-2.6v-37.2h44l4-3.6h-48v-53.7H819v48.2l3.6-3.8v-44.4h38.5l3-3.6h-41.4V714h53.5v36.5l3.6-5.4v-31h19l2-3.5h-21V657H926l1.4-3.7H880v-53.5h53.7v37c1.2-3.5 2.5-7 3.6-10.6v-26.4h7.7l.8-3.6h-8.5v-53.6h18.5l.5-3.6h-19v-53.6H960v-3.6h-22.7v-53.6h20l-.6-3.6h-19.4V371h10l-.7-3.6h-9.3V334c-1-3.7-2.4-7.3-3.6-10.8zM75.7 596H22.2v-53.4h53.5zm0-57H22.2v-53.6h53.5zm0-57.3H22.2v-53.5h53.5zm0-57.2H22.2V371h53.5zm57.2 286H79.3V657H133zm0-57.2H79.3v-53.5H133zm0-57.2H79.3v-53.4H133zm0-57H79.3v-53.6H133zm0-57.3H79.3v-53.5H133zm0-57.2H79.3V371H133zm0-57.2H79.3v-53.5H133zm0-57.2H79.3v-53.4H133zm57 457.7h-53.5V714H190zm0-57.2h-53.5V657H190zm0-57.2h-53.5V600H190zm0-57.2h-53.5v-53.4H190zm0-57h-53.5v-53.6H190zm0-57.3h-53.5v-53.5H190zm0-57.2h-53.5V371H190zm0-57.2h-53.5v-53.5H190zm0-57.2h-53.5V257H190zm0-57h-53.5v-53.6H190zm57.3 572h-53.6v-53.7h53.6zm0-57.3h-53.6V714h53.6zm0-57.2h-53.6V657h53.6zm0-57.2h-53.6v-53.5h53.6zm0-57.2h-53.6v-53.4h53.6zm0-57h-53.6v-53.6h53.6zm0-57.3h-53.6v-53.5h53.6zm0-57.2h-53.6v-54h53.6zm0-57.2h-53.6v-53.5h53.6zm0-57.2h-53.6v-53.4h53.6zm0-57h-53.6V200h53.6zm0-57.3h-53.6v-53.5h53.6zM304.5 882H251v-53.5h53.5zm0-57.2H251v-53.5h53.5zm0-57.2H251V714h53.5zm0-57.2H251V657h53.5zm0-57.2H251v-53.4h53.5zm0-57.2H251v-53.4h53.5zm0-57.2H251v-53.4h53.5zm0-57.2H251v-53.4h53.5zm0-57.2H251V371h53.5zm0-57.2H251v-53.4h53.5zm0-57.2H251v-53.4h53.5zm0-57.2H251v-53.4h53.5zm0-57.2H251v-53.4h53.5zm0-57.2H251V85h53.5zM361.7 882H308v-53.5h53.7zm0-57.3H308v-53.4h53.7zm0-57.2H308V714h53.7zm0-57.2H308V657h53.7zm0-57.2H308V600h53.7zm0-57H308v-53.4h53.7zm0-57.3H308v-53.3h53.7zm0-57.2H308v-53.3h53.7zm0-57.2H308V371h53.7zm0-57.2H308V314h53.7zm0-57H308v-53.4h53.7zm0-57.3H308v-53.3h53.7zm0-57.2H308v-53.3h53.7zm0-57.2H308V85h53.7zM419 939h-53.7v-53.3H419zm0-57.2h-53.7v-53.3H419zm0-57.2h-53.7v-53.3H419zm0-57.2h-53.7V714H419zm0-57.2h-53.7V657H419zm0-57.2h-53.7v-53.2H419zm0-57.2h-53.7v-53.2H419zm0-57.2h-53.7v-53.2H419zm0-57.2h-53.7v-53.2H419zm0-57.2h-53.7V371H419zm0-57.2h-53.7v-53.2H419zm0-57.2h-53.7v-53.2H419zm0-57.2h-53.7v-53.2H419zm0-57.2h-53.7v-53.2H419zm0-57.2h-53.7V85H419zm0-57.2h-53.7V27.8H419zm57 858h-53.5v-53.3H476zm0-57.3h-53.5v-53.2H476zm0-57.2h-53.5v-53.2H476zm0-57.2h-53.5V714H476zm0-57.2h-53.5v-53H476zm0-57h-53.5v-53.2H476zm0-57.3h-53.5v-53H476zm0-57.2h-53.5v-53H476zm0-57.2h-53.5v-53H476zm0-57.2h-53.5v-53H476zm0-57h-53.5V314H476zm0-57.3h-53.5v-53H476zm0-57.2h-53.5v-53H476zm0-57.2h-53.5v-53H476zm0-57.2h-53.5V85H476zm0-57h-53.5V27.7H476zm57.3 857.8h-53.6v-53h53.6zm0-57.2h-53.6v-53h53.6zm0-57.2h-53.6v-53h53.6zm0-57.2h-53.6v-53h53.6zm0-57.2h-53.6v-53h53.6zm0-57.2h-53.6v-53h53.6zm0-57.2h-53.6v-53h53.6zm0-57.2h-53.6v-53h53.6zm0-57.2h-53.6v-53h53.6zm0-57.2h-53.6v-53h53.6zm0-57.2h-53.6v-53h53.6zm0-57.2h-53.6v-53h53.6zm0-57.2h-53.6v-53h53.6zm0-57.2h-53.6v-53h53.6zm0-57.2h-53.6V85h53.6zm0-57.2h-53.6v-53h53.6zm57.2 858H537v-53h53.5zm0-57.3H537v-53h53.5zm0-57.2H537v-53h53.5zm0-57.2H537v-53h53.5zm0-57H537v-53h53.5zm0-57.3H537v-53h53.5zm0-57.2H537v-53h53.5zm0-57.2H537v-53h53.5zm0-57.2H537v-52.8h53.5zm0-57H537v-53h53.5zm0-57.3H537v-53h53.5zm0-57.2H537v-53h53.5zm0-57.2H537v-53h53.5zm0-57.2H537v-52.8h53.5zm0-57H537V85h53.5zm0-57.3H537v-53h53.5zM647.7 882H594v-53h53.7zm0-57.2H594v-53h53.7zm0-57.2H594v-53h53.7zm0-57.2H594v-53h53.7zm0-57.2H594v-52.8h53.7zm0-57.2H594v-52.8h53.7zm0-57.2H594V486h53.7zm0-57.2H594v-52.8h53.7zm0-57.2H594V371h53.7zm0-57.2H594v-52.8h53.7zm0-57.2H594v-52.8h53.7zm0-57.2H594V200h53.7zm0-57.2H594v-52.8h53.7zm0-57.2H594V85h53.7zM705 881.3h-53.7v-52.8H705zm0-57.2h-53.7v-52.7H705zm0-57h-53.7v-53H705zm0-57.3h-53.7V657H705zm0-57.2h-53.7v-52.7H705zm0-57.2h-53.7v-52.7H705zm0-57.2h-53.7v-52.6H705zm0-57h-53.7V428H705zm0-57.3h-53.7V371H705zm0-57.2h-53.7V314H705zm0-57.2h-53.7v-52.7H705zm0-57.2h-53.7v-52.6H705zm0-57h-53.7V142H705zm0-57.3h-53.7V85H705zm57 686h-53.5v-52.7H762zm0-57.2h-53.5V714H762zm0-57.2h-53.5V657H762zm0-57.2h-53.5v-52.6H762zm0-57.2h-53.5v-52.6H762zm0-57.2h-53.5v-52.6H762zm0-57.2h-53.5v-52.6H762zm0-57.2h-53.5V371H762zm0-57.2h-53.5v-52.6H762zm0-57.2h-53.5v-52.6H762zm0-57.2h-53.5v-52.6H762zm0-57.2h-53.5v-52.6H762zm57.3 572h-53.6V714h53.6zm0-57.2h-53.6V657h53.6zm0-57.2h-53.6v-52.6h53.6zm0-57.2h-53.6v-52.6h53.6zm0-57.2h-53.6v-52.6h53.6zm0-57.2h-53.6v-52.6h53.6zm0-57.2h-53.6V371h53.6zm0-57.2h-53.6v-52.6h53.6zm0-57.2h-53.6v-52.6h53.6zm0-57.2h-53.6v-52.6h53.6zm0-57.2h-53.6v-52.6h53.6zm57.2 514.8H823V657h53.5zm0-57.2H823v-52.6h53.5zm0-57.2H823v-52.6h53.5zm0-57.2H823v-52.6h53.5zm0-57.2H823v-52.6h53.5zm0-57.2H823V371h53.5zm0-57.2H823v-52.6h53.5zm0-57.2H823v-52.6h53.5zm57.2 286H880v-52.6h53.7zm0-57.2H880v-52.6h53.7zm0-57.2H880v-52.6h53.7zm0-57.2H880V371h53.7z"/><circle cx="296.5" cy="618" r="77.8" fill="#e6fffb"/><circle cx="700.8" cy="291.6" r="58.9" fill="#e6fffb"/><path fill="#e6fffb" d="M859.5 59l53.7 5.3 24.4 46L951.2 5.7 859.5 59z"/><path fill="#158894" d="M948.2.7L858 53.4a4.5 4.5 0 0 0-3.6 3c-1.7 3.8 1.4 8.7 5.5 8.5l38.6 3.7-86 95.2-86.8 96a40.2 40.2 0 0 0-62 48.6L505.4 379l-13 6a32 32 0 1 0-50 39.6l-108 137.2-7.8 9.8a55 55 0 0 0-78.8 21.8L114 538.2A41 41 0 1 0 47 559l-29.4 50.2c1.3 5.3 3 9.7 4.4 15 11.3-19 23-39 34.5-58.8a41 41 0 0 0 53.2-16.5l134 55.2a55 55 0 1 0 91.7-25.4L451 432a32 32 0 0 0 46.7-37l64-28.5L670.5 318a40.2 40.2 0 0 0 63-49.5l26.8-29.8 59.7-66 62-68.8L911 72l21.6 41c3 5.6 10 2.3 10.8-3L957 5.8c.5-4.5-5.4-7-8.8-5zm-14 91l-4.3-8.2L921 67c-1.3-2.4-2.6-6.3-5-7.7s-6.7-1-9.4-1.4l-18.6-2-10.4-1L944 16.7z"/><path fill="#0b162d" d="M476 960h4a484.7 484.7 0 0 0 53.3-3l3.6-.6a478 478 0 0 0 53.5-9.5l3.6-1 13-3.2 12.7-3.6q14.2-4.3 28-9.5l3.6-1.4A477.5 477.5 0 0 0 705 904l3.5-2c9.5-5 18.7-10.6 28-16.4l5.6-3.6q10.3-6.7 20.2-13.8l3.6-2.6a482.5 482.5 0 0 0 44.2-37.2l3.8-3.6 5.6-5.4 3.6-3.8a482.5 482.5 0 0 0 38.5-44.4l3-3.6c4-5.6 8.2-11.3 12-17l3.7-5.5q10-15 19-31l2-3.5a477.8 477.8 0 0 0 25-53.6l1.5-3.7q3.2-8.2 6-16.5c1.2-3.6 2.5-7 3.6-10.7 2.8-8.6 5.4-17.4 7.7-26.3l.8-3.6a478 478 0 0 0 10-53.5l.5-3.6a484 484 0 0 0 3.6-53.7v-5.3a485 485 0 0 0-2.8-51.8c0-1.2-.3-2.4-.5-3.6a478.2 478.2 0 0 0-9.3-53.6l-.8-3.6c-2.7-11.3-5.8-22.5-9.3-33.5-1-3.7-2.4-7.3-3.6-10.8l-3.2-9.4-1.4-3.6a477.4 477.4 0 0 0-24-53.6l-2-3.6q-10.6-19.6-23-38l-3.5-5.5-7-10-2.7-3.6a480.7 480.7 0 0 0-32.2-39.3l47.6-52.7L911 72.2l21.7 41c3 5.7 10 2.4 10.8-2.8L957 5.7c.5-4.5-5.4-7-8.8-5l-90.6 52.8a4.5 4.5 0 0 0-3.4 3.4 6 6 0 0 0 5 7.8h.3l38.8 3.8-71.8 79.5-3.7-3.8-5.6-5.7a482.5 482.5 0 0 0-51.6-44.3l-3.6-2.5-9.4-6.7-5.2-3.6q-19-12.7-39-23.6l-3.5-2a477.5 477.5 0 0 0-53.7-24.2l-3.6-1.4-6.5-2.4-10.7-3.6q-18-6-36.3-10.4l-3.6-.8A478 478 0 0 0 537 3.5l-3.8-.5A485 485 0 0 0 480 0" style="mix-blend-mode:overlay" opacity=".2"/></svg>