<svg xmlns="http://www.w3.org/2000/svg" viewBox="0 0 960 960"><path fill="#88c65c" d="M960 480C960 215 745 0 480 0S0 215 0 480a478.7 478.7 0 0 0 34 178l193 230a477.8 477.8 0 0 0 253 72c265.2 0 480-215 480-480"/><path fill="#f2d8bc" d="M723.2 293.5a43.8 43.8 0 0 0-59.5-17.2l-85.4 47-45.6 25.2s-19.7-61-48.2-118-66.8-53.5-79.7-46.3-24.6 22-11.6 45.5C431.4 299 429.7 309 430.8 372s-31.6 118.7-47.3 127.3l113.5 206L616.8 639l94-51.7 63-34.7a39.8 39.8 0 0 0-8.2-73 43.6 43.6 0 0 0-23.6-68 43.7 43.7 0 0 0-23.2-69.5 43.8 43.8 0 0 0 4.4-48.5z"/><path fill="#6c95ce" d="M291.8 532.4l96-53 128.5 232.5-96 53z"/><path fill="#f4f4f4" d="M391 629.5l-71-129L34 658a481.6 481.6 0 0 0 193 230l235-129.6z"/><path fill="#fff" d="M320 500.5L34 658a479.7 479.7 0 0 0 75.3 127L391 629.5z"/><circle cx="300" cy="570.1" r="19" fill="#aeadae" transform="rotate(-28.9 299.725 569.7)"/><circle cx="241" cy="602.6" r="19" fill="#aeadae" transform="rotate(-28.9 240.637 602.273)"/><path fill="#0b162d" d="M480 0v960c265 0 480-215 480-480S745 0 480 0z" style="mix-blend-mode:overlay" opacity=".2"/></svg>