<svg xmlns="http://www.w3.org/2000/svg" viewBox="0 0 960 960"><path d="M960 480C960 215 745 0 480 0S0 215 0 480c0 182 101.5 340.6 251 422l229 5.3 228.2-5C858.2 821.3 960 662.5 960 480z" fill="#3eb8aa"/><g style="isolation:isolate"><path d="M409.5 960L382 667.8s-159-107.8-150 64c6.2 114.5 25.7 166.7 25.7 166.7S208 913 213 960zm336.7 0c5-47-45-61.5-45-61.5S720.7 846.3 727 732c9-172-150-64.3-150-64.3L549.6 960z" fill="#d1872f"/><path d="M658 960c1-14.2 21.3-319.4-61-407l-14-95-229.2 20.6L349 535s-93.3 148.5-28 425z" fill="#e49c36"/><path d="M560.5 960c.5-14.2 9.7-319.4-27.7-407l-6.4-95-104 20.6L420 535s-42.4 148.5-12.7 425z" fill="#f9e6d2"/><path d="M336.5 960H458c-.8-9.8-2.7-21-17.6-33.3 0 0-20-165.3-23.4-241-2.3-53.8-38-62.7-58.5-51.3-58.4 32.5-49 169.2-2.3 287 0 0-14 19.6-19.7 38.6zm285.5 0c-5.6-19-19.7-38.5-19.7-38.5 46.8-118 56-254.6-2.3-287-20.6-11.5-56-2.7-58.5 51.2-3.3 75.6-23.4 241-23.4 241-15 12.3-16.8 23.5-17.4 33.3z" fill="#f7ad54"/><path d="M400.2 173.2S314.5 61 279.7 76.5s-3 143 17.7 203.7l99-68.2z" fill="#e49c36"/><path d="M382.6 201.2s-61.3-89.5-79.2-81.6 12.8 96.2 23.4 127.3l51.3-39z" fill="#fef4e8"/><path d="M558.4 173.2S644 61 679 76.5s3 143-17.8 203.7l-99-68.2z" fill="#e49c36"/><path d="M576 201.2s61.3-89.5 79.2-81.6-12.8 96.2-23.4 127.3l-51.3-39z" fill="#fef4e8"/><path d="M682.6 307c-24.3-133.7-161.5-143.6-197-145.7v-.3h-11v.3c-35.4 2-172.4 12-197 145.6-37.2 203.4 80.6 260.8 197 267.7v.3l5.6-.2 5.5.2v-.3c116.4-7 229-92 197-267.8z" fill="#fef4e8"/><path d="M621 368.8c45.8 29.2 46.8 73.3 47.8 90.7 18-40.2 28-90.8 16.8-152.6-24.7-135.7-164-145.7-200-148a62 62 0 0 0-11 0c-36 2.3-175 12.3-199.8 147.8-11.7 63.7-6.5 113.3 7 151.7l3.3 3.8s-2.7-58 53-93.5C366 351 427 416 459.3 423c9.8 2 30.3 2.4 40 0 32.3-8 93.4-72 121.5-54.2z" fill="#e49c36"/><ellipse cx="561.5" cy="344.9" rx="15.1" ry="23.8"/><path d="M564.6 330.8c0 2.3-2.5 4.2-5.6 4.2s-5.6-2-5.6-4.2 2.5-4.2 5.6-4.2 5.6 2 5.6 4.2z" fill="#f1edec"/><path d="M422.7 345c0 13-6.8 23.7-15 23.7S392.4 358 392.4 345s6.8-24 15-24 15.2 10.8 15.2 24z"/><ellipse cx="405.1" cy="330.8" rx="5.6" ry="4.2" fill="#f1edec"/><path d="M144 619a4.6 4.6 0 0 0 5.7 3l33.2-10.4-3-8.8-33 10.5a4.6 4.6 0 0 0-3 5.8zm-15-46.4a4.6 4.6 0 0 0 6 3l33-10.6-2.7-8.8-33.2 10.5a4.6 4.6 0 0 0-3 6z" fill="#f0f0f0"/><path fill="#666" d="M170.3 547.4L192 616l34.2-11 24.7-45.5-46.6-23-34 11"/><path fill="#666" d="M160.8 543l14.3-4.6 26.2 82.3-14.3 4.5zm102.2 1.8l6.3 19.7-25.6 9.8-7.2-22.8 26.5-6.7"/><path fill="#5e5e5e" d="M268.4 561.7l-2.2-7-2.3-7 8.5-2.8-4 16.7m-80 17.7l-11-34.2 7.4-2.2 3.6 36.5m48.1-27.9l7.2 22.8-17.5 30.7-21.8-68.5 32 15"/><path d="M960 960c-233 0-284.3-199-309.8-305.8-4-16.5-7.3-30.8-10.8-41.6-28.6-89.6-150-119.8-241-90.7L269 563.2l-5.6-17.3L393 504.6c99.2-31.6 232 2.7 263.8 102.5 3.6 11.5 7 26 11 43 24.3 102 73.4 292 292.2 292z" fill="#666"/><path fill="#fef4e8" d="M405 484.6l9 20.7 15 12.3 18.7 3 14.6-6.5 19.7-26.8 10 21.4 11 9.4 18 2.6 19-7.5 9.6-11 5.4-19.4-150 2"/><path d="M552.7 482.3c-.2 1.4-5.6 34.8-34.3 34.8-26.3 0-33.2-28-34.4-34l-.2-1v-7.5h-6v7.6l-.3 1c-1.2 6-8 34.2-34.4 34.2-28.6 0-34-33.4-34.2-34.8l-6.3 1c0 .4 6.4 40.2 40.7 40.2 22.4 0 33-17.2 37.7-29.2 4.5 12 15 29.2 37.6 29.2 34.3 0 40.6-39.8 40.7-40.2z" fill="#f4d3b0"/><path d="M480.7 417.4s-38.4-1-45.8 20.3c0 0 2 39.4 45.7 39.4s45.8-39.3 45.8-39.3c-7.4-21.3-45.8-20.3-45.8-20.3z"/></g><path d="M480 960h266.2c3.6-35-22.8-51.8-36.8-58.3a480 480 0 0 0 41.5-25.4C796 925 862 960 960 960v-18c-89.8 0-151-32-193.6-76.8C884 777.7 960 637.7 960 480 960 215 745 0 480 0" style="mix-blend-mode:overlay" fill="#0b162d" opacity=".2"/></svg>